# xmcd CD database file
#
# Track frame offsets:
#	150
#	15190
#	31988
#	47739
#	61698
#	75003
#	93040
#	113007
#	126342
#	140782
#	151844
#	164396
#	176628
#	194160
#	216767
#
# Disc length: 3096 seconds
#
# Revision: 1
# Processed by: cddbd v1.5.1PL0 Copyright (c) Steve Scherf et al.
# Submitted via: CDex 1.51
#
DISCID=b90c160f
DTITLE=Tony McPhee - Blues At ten
DYEAR=2004
DGENRE=Blues
TTITLE0=Blues At Ten
TTITLE1=Messin' My Mind
TTITLE2=I Won't Take Love
TTITLE3=Strange Place
TTITLE4=Young At Heart
TTITLE5=Oh Death
TTITLE6=Blues Is A Man
TTITLE7=Devilived
TTITLE8=PMT Blues
TTITLE9=Better Of Withe The Blues
TTITLE10=Lost Boys
TTITLE11=Don't You Feel My Leg
TTITLE12=Single Lives And Family Ties
TTITLE13=Graveyard Blues
TTITLE14=Christmas Tree
EXTD=YEAR: 2004
EXTT0=
EXTT1=
EXTT2=
EXTT3=
EXTT4=
EXTT5=
EXTT6=
EXTT7=
EXTT8=
EXTT9=
EXTT10=
EXTT11=
EXTT12=
EXTT13=
EXTT14=
PLAYORDER=
